<?xml version="1.0" encoding="UTF-8" standalone="no"?><svg xmlns="http://www.w3.org/2000/svg" xmlns:xlink="http://www.w3.org/1999/xlink" fill="#000000" height="44.5" preserveAspectRatio="xMidYMid meet" version="1" viewBox="0.0 0.0 293.2 44.5" width="293.2" zoomAndPan="magnify"><g id="change1_1"><path d="M23.9 0L16.7 14.9 0 17 12.3 28.3 9.1 44.5 23.9 36.6 38.6 44.5 35.5 28.3 47.8 17 31 14.9z" fill="#ff8c00"/></g><g id="change1_2"><path d="M85.2 0L78.1 14.9 61.4 17 73.7 28.3 70.5 44.5 85.2 36.6 100 44.5 96.8 28.3 109.1 17 92.4 14.9z" fill="#ff8c00"/></g><g id="change1_3"><path d="M146.6 0L139.5 14.9 122.7 17 135 28.3 131.9 44.5 146.6 36.6 161.4 44.5 158.2 28.3 170.5 17 153.8 14.9z" fill="#ff8c00"/></g><g id="change1_4"><path d="M208 0L200.8 14.9 184.1 17 196.4 28.3 193.2 44.5 208 36.6 222.7 44.5 219.6 28.3 231.9 17 215.1 14.9z" fill="#ff8c00"/></g><g id="change2_1"><path d="M269.3 0L262.2 14.9 245.5 17 257.8 28.3 254.6 44.5 269.3 36.6 284.1 44.5 280.9 28.3 293.2 17 276.5 14.9z" fill="#ff8c00"/></g></svg>